<?xml version="1.0" encoding="utf-8"?>
<!-- Generator: Adobe Illustrator 17.1.0, SVG Export Plug-In . SVG Version: 6.00 Build 0)  -->
<!DOCTYPE svg PUBLIC "-//W3C//DTD SVG 1.1//EN" "http://www.w3.org/Graphics/SVG/1.1/DTD/svg11.dtd">
<svg version="1.1" xmlns="http://www.w3.org/2000/svg" xmlns:xlink="http://www.w3.org/1999/xlink" x="0px" y="0px"
	 viewBox="-28.6 0 536.7 101.9" enable-background="new -28.6 0 536.7 101.9" xml:space="preserve">
<g id="Ebene_1" display="none">
	<g display="inline">
		<path fill="none" stroke="#181919" stroke-width="8" stroke-miterlimit="10" d="M2.8,39.5L28.3,14l25.5,25.5"/>
		<path fill="none" stroke="#181919" stroke-width="8" stroke-miterlimit="10" d="M2.8,62.1l25.5-25.5l25.5,25.5"/>
		<path fill="none" stroke="#181919" stroke-width="8" stroke-miterlimit="10" d="M101.9,36.6L76.4,62.1L50.9,36.6"/>
		<path fill="none" stroke="#181919" stroke-width="8" stroke-miterlimit="10" d="M101.9,14L76.4,39.5L50.9,14"/>
		<path fill="none" stroke="#181919" stroke-width="8" stroke-miterlimit="10" d="M28.3,101.9V0"/>
		<path fill="none" stroke="#181919" stroke-width="8" stroke-miterlimit="10" d="M76.4,101.9V0"/>
	</g>
	<path display="inline" d="M127.4,76.4h9V55.3h22.5v-8.2h-22.5V33.7h23.8v-8.2h-32.8L127.4,76.4z"/>
	<path display="inline" d="M211.6,31.4c-2.4-2.4-5.4-4.2-8.6-5.4c-3.5-1.3-7.2-1.9-10.9-1.8c-3.7,0-7.3,0.6-10.8,1.9
		c-3.2,1.2-6.1,3-8.5,5.4c-2.4,2.4-4.3,5.3-5.6,8.5c-1.4,3.5-2.1,7.3-2,11.1c-0.1,3.7,0.6,7.4,2,10.9c2.5,6.4,7.7,11.4,14.1,13.8
		c3.5,1.3,7.1,1.9,10.8,1.9c3.7,0,7.4-0.7,10.9-2c3.2-1.2,6.1-3.1,8.6-5.5c2.4-2.4,4.3-5.2,5.6-8.4c1.4-3.5,2.1-7.2,2-10.9
		c0.1-3.8-0.6-7.6-2-11.1C215.9,36.6,214,33.8,211.6,31.4z M208.5,58.2c-0.8,2.2-2,4.3-3.6,6c-1.5,1.7-3.4,3.1-5.5,4
		c-2.3,1-4.7,1.4-7.2,1.4c-2.5,0.1-4.9-0.4-7.2-1.4c-2.1-0.9-4-2.3-5.5-4c-1.6-1.7-2.8-3.8-3.6-6c-0.9-2.4-1.3-4.9-1.3-7.5
		c0-2.4,0.4-4.8,1.3-7.1c0.8-2.1,2-4.1,3.6-5.8c1.5-1.7,3.4-3,5.5-3.9c2.3-1,4.7-1.4,7.2-1.4c2.5,0,4.9,0.4,7.2,1.4
		c2.1,0.9,4,2.2,5.5,3.9c1.6,1.7,2.8,3.7,3.6,5.8c0.9,2.3,1.3,4.7,1.3,7.1C209.8,53.3,209.4,55.8,208.5,58.2z"/>
	<path display="inline" d="M259.8,49.4c2.1-2.6,3.2-5.9,3.1-9.3c0.1-2.5-0.5-4.9-1.6-7.1c-1-1.8-2.4-3.4-4.2-4.5
		c-1.9-1.1-3.9-1.9-6.1-2.3c-2.3-0.5-4.7-0.7-7.1-0.7h-17.7v50.9h9.1V54.9h6.6l11.8,21.6h10.9l-13.5-22.6
		C254.5,53.6,257.6,52,259.8,49.4z M246.2,46.9l-3.9,0.2h-7V33.3h7.8l3.6,0.2c1.1,0.1,2.3,0.4,3.3,0.9c1,0.4,1.8,1.1,2.4,2
		c0.7,1.1,1,2.3,0.9,3.6c0.1,1.4-0.3,2.7-1,3.9c-0.7,0.9-1.6,1.7-2.6,2.1C248.6,46.5,247.4,46.8,246.2,46.9z"/>
	<path display="inline" d="M279.9,54.4h23.4v-8.2h-23.4V33.7h24.7v-8.2h-33.7v50.9h35v-8.2h-26V54.4z"/>
	<path display="inline" d="M340,49.8c-1.8-1.1-3.8-2-5.8-2.6l-5.8-1.9c-1.6-0.6-3.1-1.4-4.5-2.4c-1.2-1-1.9-2.5-1.8-4
		c0-1,0.2-2.1,0.7-3c0.5-0.8,1.1-1.5,1.9-2c0.8-0.5,1.7-0.9,2.7-1.1c1-0.3,2.1-0.4,3.1-0.4c1.7,0,3.5,0.3,5.1,1
		c1.5,0.6,2.9,1.7,3.8,3.1l6.6-7c-1.9-1.8-4.3-3.2-6.8-4c-2.5-0.8-5.2-1.2-7.8-1.2c-2.3,0-4.7,0.3-6.9,0.9c-2.2,0.6-4.2,1.5-6,2.8
		c-1.7,1.3-3.2,2.9-4.2,4.8c-1.1,2.1-1.7,4.4-1.6,6.8c-0.1,2.5,0.5,5,1.8,7.2c1.2,1.8,2.7,3.2,4.5,4.3c1.8,1.1,3.8,2,5.8,2.6l5.8,2
		c1.6,0.6,3.2,1.5,4.5,2.6c1.2,1.1,1.9,2.7,1.8,4.3c0,1.1-0.3,2.2-0.8,3.1c-0.5,0.9-1.2,1.6-2.1,2.2c-0.9,0.6-1.9,1-2.9,1.3
		c-3,0.8-6.2,0.4-8.9-1c-1.7-0.9-3.2-2.3-4.3-3.9l-6.9,6.5c2,2.4,4.6,4.2,7.5,5.3c2.9,1.1,6,1.6,9.1,1.6c2.4,0,4.8-0.3,7.1-1
		c2.1-0.6,4.1-1.6,5.9-3c1.7-1.4,3.1-3.1,4.1-5.1c1.1-2.3,1.6-4.7,1.5-7.2c0.1-2.6-0.5-5.1-1.8-7.3C343.3,52.4,341.8,50.9,340,49.8
		L340,49.8z"/>
	<path display="inline" d="M350.1,33.7h15.6v42.7h9V33.7h15.6v-8.2h-40.2V33.7z"/>
	<path display="inline" d="M431.9,49.4c2.1-2.6,3.2-5.9,3.1-9.3c0.1-2.5-0.5-4.9-1.6-7.1c-1-1.8-2.4-3.4-4.2-4.5
		c-1.9-1.1-3.9-1.9-6.1-2.3c-2.3-0.5-4.7-0.7-7.1-0.7h-17.7v50.9h9.1V54.9h6.6l11.8,21.6h10.9l-13.5-22.6
		C426.6,53.6,429.7,52,431.9,49.4L431.9,49.4z M418.3,46.9l-3.9,0.2h-7V33.3h7.8l3.6,0.2c1.1,0.1,2.3,0.4,3.3,0.9
		c1,0.4,1.8,1.1,2.4,2c0.7,1.1,1,2.3,0.9,3.6c0.1,1.4-0.3,2.7-1,3.9c-0.7,0.9-1.6,1.7-2.6,2.1C420.7,46.5,419.5,46.8,418.3,46.9
		L418.3,46.9z"/>
	<path display="inline" d="M473.3,25.5l-12.7,20.3l-12.5-20.3h-11.3l19.1,29.1v21.8h9V54.6l19.2-29.1L473.3,25.5z"/>
</g>
<g id="Ebene_3" display="none">
	<rect x="-27.6" y="2" display="inline" width="536.7" height="101.9"/>
</g>
<g id="Ebene_2">
	<text transform="matrix(1 0 0 1 -27.6001 68.0059)"><tspan x="0" y="0" fill="#FFFFFF" font-family="'Helvetica-Bold'" font-size="60">SILAS</tspan><tspan x="176.7" y="0" font-family="'Helvetica-Bold'" font-size="60"> NIEWIERRA</tspan></text>
</g>
</svg>
